<svg width="73" height="73" viewBox="0 0 73 73" fill="none" xmlns="http://www.w3.org/2000/svg">
<path d="M72.7241 45.65L70.117 40.4142C69.8649 39.908 69.455 39.4964 68.9509 39.2433L58.5226 34.0075C58.1611 33.826 57.7614 33.7314 57.3566 33.7314H50.1515L45.4873 31.3896C44.199 30.7479 42.6358 31.2669 41.9891 32.5605C41.345 33.8541 41.8669 35.4264 43.1552 36.0732L48.3693 38.6911C48.7308 38.8726 49.1306 38.9672 49.5354 38.9672H56.7405L65.8423 43.5358L66.8938 45.65L64.0117 47.097C63.5076 47.3501 63.0977 47.7617 62.8457 48.2679L60.2386 53.5037C59.7371 54.511 59.9331 55.7279 60.7274 56.5256L64.0983 59.9105L61.7713 62.2471L52.7738 59.9897C52.0151 59.7929 51.2081 59.9616 50.5792 60.4346L41.1438 67.5392L35.7273 66.1817L41.1922 58.8623C41.6963 58.1899 41.8465 57.3156 41.5945 56.5128C41.345 55.7075 40.7263 55.076 39.932 54.8101L32.6938 52.3865L30.5221 50.2058C29.5037 49.1832 27.8539 49.1832 26.8355 50.2058L22.7607 54.2963L16.4683 52.1922C16.2023 52.1028 15.9235 52.0567 15.6434 52.0567H8.43705L6.10622 50.8858L7.0635 48.9608L12.3324 47.1993L13.8001 48.6719C14.289 49.1627 14.9522 49.4388 15.6434 49.4388H20.8576C22.2973 49.4388 23.4646 48.2679 23.4646 46.8209V41.5851C23.4646 41.1786 23.3704 40.7772 23.1897 40.4142L23.1171 40.2685L28.0461 41.5059C29.4426 41.8587 30.8581 41.0073 31.2082 39.6012C31.557 38.2002 30.7079 36.7788 29.3115 36.4286L18.8832 33.8106C17.8928 33.5576 16.854 33.9155 16.2163 34.7106C15.5798 35.5082 15.4639 36.605 15.9184 37.5202L18.2505 42.2038V44.203H16.7229L14.8796 42.3521C14.1808 41.6516 13.1471 41.3985 12.2115 41.7206L4.39023 44.3385C3.73465 44.5558 3.19236 45.0288 2.88302 45.65L0.275948 50.8858C-0.368182 52.1795 0.153742 53.7517 1.442 54.3985L6.65615 57.0164C7.01767 57.198 7.41739 57.2926 7.8222 57.2926H15.2208L22.6397 59.775C23.5779 60.092 24.6091 59.844 25.3079 59.1435L28.6788 55.7586L29.4426 56.5256C29.729 56.8119 30.0778 57.0292 30.461 57.1571L34.8515 58.6271L29.2007 66.1945C28.6762 66.895 28.5362 67.8128 28.829 68.6411C29.1218 69.4668 29.8066 70.0906 30.6532 70.3028L41.0827 72.9207C41.2915 72.9744 41.5028 73 41.7141 73C42.2717 73 42.8216 72.8185 43.2774 72.4759L52.7127 65.3713L61.9393 67.6849C62.8228 67.9099 63.7673 67.6466 64.414 66.9972L69.6282 61.7614C70.6465 60.7388 70.6465 59.0821 69.6282 58.0595L65.743 54.1582L67.1204 51.3895L71.558 49.1627C72.8463 48.5159 73.3682 46.9436 72.7241 45.65Z" fill="#7DBA28"/>
<path d="M33.6923 9.61118V46.4832C33.6923 47.9106 34.8465 49.0656 36.2699 49.0656C37.6934 49.0656 38.8475 47.9106 38.8475 46.4832V28.4064H62.0457C62.9972 28.4064 63.8707 27.8818 64.3188 27.0421C64.7668 26.2023 64.7165 25.1834 64.1904 24.3916L59.9892 18.0768L64.1904 11.762C64.7165 10.9702 64.7668 9.95131 64.3188 9.11153C63.8707 8.27175 62.9972 7.7472 62.0457 7.7472H40.7077C41.152 6.98433 41.4251 6.10955 41.4251 5.1648C41.4251 2.3176 39.1118 0 36.2699 0C33.4268 0 31.1147 2.3176 31.1147 5.1648C31.1147 7.06739 32.1589 8.71496 33.6923 9.61118ZM54.746 19.5092L57.2304 23.2416H38.8475V12.912H57.2304L54.746 16.6444C54.1695 17.5119 54.1695 18.6417 54.746 19.5092Z" fill="#7DBA28"/>
</svg>
