<svg width="103" height="74" viewBox="0 0 103 74" fill="none" xmlns="http://www.w3.org/2000/svg">
<path fill-rule="evenodd" clip-rule="evenodd" d="M44.0483 16.7138C45.3187 16.8812 46.4728 17.1807 47.5599 17.4521C49.6038 17.963 51.3305 18.4176 53.3743 16.3738C53.8782 15.8698 54.6359 15.7183 55.2948 15.9914C55.952 16.2645 56.382 16.9076 56.382 17.6195C56.382 19.1735 56.5 20.0492 56.8964 20.5883C57.2541 21.0746 57.8038 21.2033 58.3906 21.4693C59.7948 22.1036 61.4616 22.9441 63.1337 25.4513C63.3276 25.742 63.4297 26.0821 63.4297 26.4292V30.0641L59.9059 30.5046C59.9059 28.7955 59.9059 26.986 59.9059 26.986C58.4998 25.1095 57.0867 24.7871 56.0349 24.2602C55.2508 23.8691 54.5883 23.4004 54.0562 22.6745C53.7161 22.2111 53.4184 21.6208 53.2034 20.8139C51.5718 21.5768 50.009 21.5451 48.3545 21.242C47.0472 21.0024 45.6623 20.502 44.0483 20.2518V16.7138Z" fill="#7DBA28"/>
<path fill-rule="evenodd" clip-rule="evenodd" d="M63.4301 29.2412V31.715H65.1921C65.8599 31.715 66.4695 32.092 66.7673 32.6893L68.087 35.3287C70.8761 35.7956 71.7923 37.9787 72.0919 39.3618L73.4768 40.0543C74.0723 39.3178 74.9163 38.3681 75.8994 37.5241C77.0183 36.5656 78.3151 35.7745 79.6436 35.4274L80.7624 38.7804C79.8444 38.8949 78.9705 39.5327 78.1935 40.1987C76.6042 41.5607 75.4678 43.2645 75.4678 43.2645C74.9744 44.0028 74.0089 44.26 73.2142 43.8618L69.6903 42.0999C69.093 41.8021 68.716 41.1925 68.716 40.5247C68.716 40.5247 68.716 38.7628 66.954 38.7628C66.2863 38.7628 65.6766 38.3857 65.3789 37.7884L64.1032 35.2389H61.6682C60.6956 35.2389 59.9062 34.4495 59.9062 33.4769C59.9062 33.4769 59.9062 31.4278 59.9062 29.6324L63.4301 29.2412Z" fill="#7DBA28"/>
<path fill-rule="evenodd" clip-rule="evenodd" d="M78.6392 35.7725C79.277 35.5012 79.9289 35.3197 80.5808 35.2598C81.3085 34.8757 83.1674 33.8538 84.9522 32.5376C86.1028 31.6883 87.2498 30.7316 87.9422 29.7343C88.0709 29.5106 88.2065 29.2815 88.3492 29.0472C88.8355 28.2349 89.8768 27.953 90.7067 28.4076C91.5366 28.8639 91.859 29.8947 91.4344 30.7404C91.304 31.0029 91.149 31.2655 90.9728 31.528C89.4364 34.1286 88.8073 35.4994 88.8303 36.4227C88.8355 36.6324 88.9677 36.7434 89.091 36.872C89.2602 37.0464 89.4487 37.2173 89.646 37.4041C89.8821 37.6279 90.1235 37.8692 90.3631 38.1424C90.5799 38.0613 90.7983 37.9979 91.0168 37.9432C91.5525 37.8093 92.1092 37.8569 92.6431 37.4763C92.962 37.2473 93.2492 36.8526 93.5699 36.213C93.8677 35.6157 94.4773 35.2387 95.1451 35.2387C95.8128 35.2387 96.4225 35.6157 96.7202 36.213C97.3898 37.5521 97.8179 38.8877 98.2672 40.0453L95.5944 42.7181L95.5521 42.6336C95.2244 41.9799 94.9513 41.2169 94.6517 40.4012C94.072 40.8011 93.4941 40.9914 92.9303 41.1324C92.3348 41.2821 91.7005 41.1764 91.1049 41.7702C90.705 42.1702 90.1359 42.3552 89.5773 42.2635C89.0188 42.1737 88.536 41.8195 88.284 41.3121C87.7467 40.2408 86.9837 39.7774 86.4781 39.2383C85.7997 38.5141 85.3504 37.7336 85.3099 36.5654C83.4228 37.7847 81.8371 38.5758 81.8371 38.5758C81.5922 38.6991 81.3226 38.7626 81.0495 38.7626C80.6795 38.7626 80.3148 38.8542 79.9606 39.0075L78.6392 35.7725Z" fill="#7DBA28"/>
<path fill-rule="evenodd" clip-rule="evenodd" d="M98.003 39.3442C98.1298 39.6896 98.2567 40.0243 98.3853 40.3433C98.8099 41.3916 99.1817 42.2867 100.431 42.2867C101.294 42.2867 102.033 42.9139 102.17 43.7667C102.309 44.6195 101.809 45.4476 100.988 45.7207C98.4346 46.5717 97.9061 47.3981 97.2947 48.2491C96.6551 49.1371 95.945 50.0234 94.1707 50.9097C93.4924 51.2497 92.6731 51.1158 92.1375 50.5802C91.4521 49.8948 90.9728 49.5301 90.4847 49.5935C89.9879 49.6587 89.6284 50.0833 89.2479 50.485C88.6594 51.1052 88.1202 51.803 87.5811 52.3421C87.0771 52.846 86.3195 52.9976 85.6605 52.7245C85.0033 52.4514 84.5734 51.8082 84.5734 51.0964C84.5734 49.0755 84.6686 47.7417 84.2263 46.6281L87.1934 44.6512C87.5476 45.3489 87.7643 46.1048 87.8964 46.984C88.7351 46.3815 89.6654 46.0326 90.6997 46.0678C91.5366 46.096 92.4951 46.3814 93.5541 47.1567C94.1901 46.6493 94.4615 46.1348 94.8368 45.6344C95.2314 45.1076 95.6825 44.5684 96.4225 44.0293C96.0948 43.6205 95.8111 43.1518 95.5521 42.6338C95.4217 42.373 95.2984 42.0946 95.1803 41.8039L98.003 39.3442Z" fill="#7DBA28"/>
<path fill-rule="evenodd" clip-rule="evenodd" d="M69.017 59.453C68.1783 59.194 67.4841 58.8399 66.9397 58.4399C65.916 57.6875 65.3504 56.7396 65.1778 55.7952C64.9187 54.368 65.4879 52.7241 67.4189 51.563C68.1748 50.3085 69.1333 49.6284 70.1288 49.2989C71.4644 48.8567 72.9744 49.1315 74.3311 49.757C74.7575 48.0797 75.7142 46.4675 77.832 45.9688C78.5844 44.036 80.7393 42.2864 84.5733 42.2864C85.0402 42.2864 85.4895 42.4714 85.819 42.8026C86.7352 43.7171 87.2849 44.6227 87.6144 45.7046L84.531 48.0109C84.4534 47.174 84.2596 46.4886 83.798 45.8455C82.8888 45.9336 82.1735 46.1785 81.666 46.5591C81.2872 46.8428 81.0494 47.1934 81.0494 47.5722C81.0494 48.5448 80.26 49.3342 79.2874 49.3342C78.8698 49.3342 78.5439 49.3994 78.3025 49.565C77.9395 49.8116 77.8021 50.2363 77.7017 50.6521C77.5114 51.4344 77.5255 52.266 77.5255 52.8581C77.5255 53.5699 77.0956 54.213 76.4384 54.4861C75.7794 54.7592 75.0217 54.6077 74.5178 54.1037C73.9822 53.5681 73.2387 53.0237 72.4458 52.7435C72.0405 52.6026 71.6229 52.5162 71.2353 52.6431C70.8565 52.77 70.5587 53.1118 70.2909 53.6456C70.1218 53.9875 69.8451 54.2641 69.5033 54.4332C69.0523 54.6588 68.7105 54.8526 68.6453 55.1521C68.6012 55.3565 68.8426 55.4728 69.0699 55.6314C69.558 55.9732 70.2486 56.2093 71.1085 56.315L69.017 59.453Z" fill="#7DBA28"/>
<path fill-rule="evenodd" clip-rule="evenodd" d="M70.1518 56.1248C70.7333 56.2921 71.4345 56.382 72.2397 56.382C73.2123 56.382 74.0017 57.1714 74.0017 58.1439C74.0017 58.736 73.9876 59.5676 74.1779 60.3499C74.2783 60.7657 74.4157 61.1904 74.7787 61.437C75.0201 61.6026 75.346 61.6678 75.7636 61.6678C76.5036 61.6678 77.1644 62.1295 77.4181 62.8237C77.6718 63.5179 77.4657 64.2967 76.9018 64.7741C73.5577 67.6074 72.5516 70.0758 72.2239 72.4774C72.1322 73.1416 71.6741 73.6949 71.0398 73.9098C70.4055 74.123 69.706 73.9592 69.2321 73.4852C68.1502 72.4034 66.7125 71.3215 65.8474 70.7031L62.3217 72.1127C61.7791 72.3311 61.1641 72.2642 60.6796 71.9365C60.1968 71.6087 59.9061 71.0625 59.9061 70.4776C59.9061 68.7808 59.9607 67.1017 61.0073 65.412C60.0594 64.7125 59.2401 64.4271 58.449 64.2773L59.5749 60.8979C61.0743 61.2238 62.6671 61.9357 64.6757 63.946C65.3646 64.6332 65.3646 65.7503 64.6757 66.4374C64.2458 66.8691 63.9621 67.3025 63.7789 67.736L65.4192 67.0805C65.9566 66.8638 66.568 66.9273 67.0508 67.2497C67.0508 67.2497 68.1573 67.9897 69.4453 69.0046C70.0056 67.447 70.9271 65.8348 72.4758 64.1399C71.1808 63.058 70.7156 61.319 70.5571 59.7931C69.6532 59.6663 68.8638 59.439 68.1961 59.15L70.1518 56.1248Z" fill="#7DBA28"/>
<path fill-rule="evenodd" clip-rule="evenodd" d="M28.1084 39.0127C28.8643 38.8471 29.5162 38.5652 30.1294 38.389C31.2799 38.0612 32.3477 37.9661 33.4559 38.3766C34.4444 38.7431 35.5333 39.5518 36.705 41.3085C36.8988 41.5992 37.001 41.9393 37.001 42.2864C37.001 42.9912 37.4608 43.3999 37.8573 43.7805C38.4246 44.325 38.9884 44.8183 39.3514 45.3434C39.7813 45.9636 40.0068 46.6331 39.9698 47.3925C39.9487 47.8436 39.8236 48.3651 39.5047 48.9571L50.3583 56.7097C50.4376 56.7661 50.5116 56.8295 50.5803 56.8982C54.3209 60.6388 56.3806 60.4468 58.4368 60.7093C59.2561 60.8132 60.0789 60.9648 60.9599 61.3207L59.3618 64.5186C58.4897 64.212 57.6915 64.1733 56.8493 64.0799C54.6222 63.8332 52.1255 63.3892 48.1928 59.4935L35.9773 50.7684C35.5562 50.4671 35.2884 49.9949 35.2443 49.4786C35.202 48.9642 35.3888 48.455 35.7553 48.0885C36.0407 47.803 36.2839 47.4524 36.3931 47.285C36.3103 47.1881 36.1834 47.0419 36.0865 46.9502C35.7412 46.619 35.3518 46.2807 34.9959 45.8966C34.2559 45.102 33.6533 44.1505 33.5106 42.8802C32.9784 42.1278 32.5697 41.7278 32.0887 41.6415C31.4737 41.5305 30.8853 41.8406 30.1928 42.0626C29.222 42.3727 28.1507 42.6687 26.8892 42.6687L28.1084 39.0127Z" fill="#7DBA28"/>
<path fill-rule="evenodd" clip-rule="evenodd" d="M7.95361 32.5994C8.32715 31.803 8.70949 31.1846 9.09712 30.7247C9.78427 29.9107 10.5402 29.4843 11.3277 29.3257C12.0589 29.1795 12.8518 29.2623 13.7152 29.6411C13.7997 29.0562 13.9513 28.5293 14.1486 28.0747C14.7265 26.7568 15.7097 25.9428 16.8479 25.6732C18.1817 25.3561 20.0529 25.8142 21.8448 27.9514C24.2657 27.4968 25.751 28.3655 26.5897 29.4949C27.3333 30.4974 27.6064 31.8753 27.4284 33.2179C27.3403 33.8909 27.1394 34.5464 26.8558 35.1261C27.4725 36.0458 27.7508 36.9743 27.7508 37.8817C27.7508 38.2852 27.6962 38.694 27.5799 39.1028C28.0292 39.0464 28.4433 38.9389 28.8327 38.8173L28.3728 42.535C27.1659 42.7482 25.7827 42.7535 24.1107 42.1967C23.531 42.0029 23.0923 41.5237 22.9531 40.9299C22.8121 40.3344 22.9901 39.7106 23.4217 39.279C23.9027 38.798 24.2269 38.3628 24.2269 37.8817C24.2269 37.4007 23.9027 36.9655 23.4217 36.4845C22.7328 35.7974 22.7328 34.6803 23.4217 33.9931C23.7618 33.6513 23.9397 33.0558 23.9574 32.4884C23.9715 32.1026 23.9574 31.6797 23.6367 31.4806C23.2226 31.2216 22.5989 31.3255 21.7003 31.6251C20.9462 31.8753 20.1181 31.5916 19.6776 30.9309C19.149 30.138 18.6433 29.5883 18.1465 29.2817C17.9615 29.1672 17.8082 29.0667 17.6584 29.102C17.4047 29.1619 17.3501 29.4878 17.262 29.8279C17.0505 30.6437 17.1298 31.7202 17.5298 32.9201C17.787 33.6954 17.4787 34.5464 16.7845 34.9763C16.0885 35.4044 15.1899 35.3005 14.612 34.7226C13.8544 33.9667 13.2024 33.387 12.6104 33.0329C12.3779 32.8937 12.2052 32.7439 12.0184 32.7827C11.8458 32.8161 11.7629 33.0135 11.6167 33.2284C11.2837 33.7165 10.9806 34.3878 10.6705 35.2494L7.95361 32.5994Z" fill="#7DBA28"/>
<path fill-rule="evenodd" clip-rule="evenodd" d="M11.0809 34.2168C10.91 34.5974 10.7426 35.0344 10.5717 35.5295V42.2865C10.5717 42.8292 10.3215 43.3419 9.89333 43.6749C9.46694 44.0097 8.9084 44.1278 8.38158 43.9956L1.33379 42.2337C0.549727 42.0381 0 41.3333 0 40.5246V8.80956C0 8.1136 0.410533 7.48282 1.0466 7.19915L16.9041 0.151362C17.4873 -0.107643 18.1657 -0.0301169 18.6766 0.352224L32.7722 10.9239C33.2162 11.2569 33.477 11.7784 33.477 12.3335C33.477 12.4621 33.5756 12.5977 33.662 12.7669C33.8611 13.1528 34.1448 13.5721 34.4725 14.0055C35.3446 15.1561 36.5058 16.3771 37.4554 17.3409C40.8542 16.2309 43.5113 16.5251 45.8106 17.0308V20.6199C43.6346 20.0737 41.0815 19.6473 37.6545 21.0163C37.0009 21.2789 36.2538 21.1256 35.7552 20.6269C34.4566 19.3284 32.2577 17.1101 31.049 15.2653C30.6032 14.5835 30.2914 13.9245 30.1169 13.3378L17.3904 3.79154L3.52389 9.95483V39.1485L7.04778 40.0295V35.2388C7.04778 35.0502 7.07774 34.8617 7.13764 34.682C7.50941 33.5684 7.89352 32.661 8.28643 31.9404L11.0809 34.2168Z" fill="#7DBA28"/>
</svg>
